<svg xmlns="http://www.w3.org/2000/svg" viewBox="0 0 24 24" fill="#d9d9d9">
  <path d="M3.499 15.501A1.5 1.5 0 0 1 4.999 17a1.5 1.5 0 0 1-1.499 1.499A1.5 1.5 0 0 1 2 17a1.5 1.5 0 0 1 1.499-1.499zM7.5 16h13.503a1 1 0 0 1 .117 1.993l-.117.007H7.5a1 1 0 0 1-.117-1.993L7.5 16h13.503H7.5zm-4.001-5.499A1.5 1.5 0 0 1 4.999 12a1.5 1.5 0 0 1-1.499 1.499A1.5 1.5 0 0 1 2 12a1.5 1.5 0 0 1 1.499-1.499zM7.5 11h13.503a1 1 0 0 1 .117 1.993l-.117.007H7.5a1 1 0 0 1-.117-1.993L7.5 11h13.503H7.5zM3.499 5.507a1.5 1.5 0 0 1 1.499 1.499 1.5 1.5 0 0 1-1.499 1.499A1.5 1.5 0 0 1 2 7.006a1.5 1.5 0 0 1 1.499-1.499zM7.5 6h13.503a1 1 0 0 1 .117 1.993L21.003 8H7.5a1 1 0 0 1-.117-1.993L7.5 6h13.503H7.5z"/>
</svg>